<svg width="75" height="75" viewBox="0 0 75 75" fill="none" xmlns="http://www.w3.org/2000/svg">
<g clip-path="url(#clip0_546_13)">
<path d="M74.2206 66.4226H67.1452V73.4538C67.1452 74.8601 66.2017 75.7975 64.7867 75.7975C63.3716 75.7975 62.4283 74.8599 62.4283 73.4538V66.4226H55.3528C53.9377 66.4226 52.9944 65.485 52.9944 64.0789C52.9944 62.6726 53.9379 61.7352 55.3528 61.7352H62.4283V54.7039C62.4283 53.2977 63.3718 52.3602 64.7867 52.3602C66.2019 52.3602 67.1452 53.2978 67.1452 54.7039V61.7352H74.2206C75.6358 61.7352 76.5791 62.6728 76.5791 64.0789C76.5791 65.4852 75.6356 66.4226 74.2206 66.4226ZM48.2772 42.9851H44.5037C41.2018 45.7975 36.4848 47.6726 31.7678 47.6726C27.0508 47.6726 22.8055 45.7975 19.0319 42.9851H15.7301C10.5414 42.9851 6.29609 47.2038 6.29609 52.3601V61.7351C6.29609 66.8914 10.5414 71.1101 15.7301 71.1101H48.2773V75.7976H15.7301C7.71121 75.7976 1.5791 69.7038 1.5791 61.7351V52.3601C1.5791 44.8601 7.71121 38.2976 15.2584 38.2976C12.9 34.5476 11.0132 29.3913 11.0132 24.2351C11.0132 11.1101 20.4471 0.797607 32.2397 0.797607C44.0321 0.797607 53.4662 11.1101 53.4662 24.2351C53.4662 29.3913 51.5793 34.5476 49.2209 38.2976C54.8813 38.7663 60.0699 42.5163 61.9567 47.6726H56.768C54.8812 44.8601 52.051 42.9851 48.2775 42.9851H48.2772ZM32.2395 5.48511C23.2772 5.48511 15.7301 13.9226 15.7301 24.2351C15.7301 34.5477 23.2772 42.9852 32.2395 42.9852C41.2018 42.9852 48.7489 34.5477 48.7489 24.2351C48.7489 13.9226 41.2018 5.48511 32.2395 5.48511Z" fill="black"/>
</g>
<defs>
<clipPath id="clip0_546_13">
<rect width="75" height="75" fill="white"/>
</clipPath>
</defs>
</svg>
