<svg width="75" height="73" viewBox="0 0 75 73" fill="none" xmlns="http://www.w3.org/2000/svg">
<g clip-path="url(#clip0_545_8)">
<path d="M28.8887 72.6607C12.8172 72.6607 0.763672 66.2991 0.763672 57.8616C0.763672 51.6607 7.31278 46.4375 17.9199 44.1741C15.585 42.3451 13.699 40.0066 12.4061 37.3372C11.1132 34.6679 10.4476 31.7383 10.4601 28.7723V20.991C10.3667 16.3232 12.1293 11.8089 15.3609 8.43926C18.5925 5.06958 23.029 3.11977 27.6967 3.01782H30.0672C34.7302 3.11981 39.1627 5.06591 42.3935 8.42977C45.6243 11.7936 47.39 16.301 47.3039 20.9643V28.7723C47.3164 31.7383 46.6508 34.6679 45.3579 37.3372C44.065 40.0066 42.179 42.3451 39.844 44.1741C50.4512 46.4643 57.0137 51.6875 57.0137 57.9285C57.0137 66.3259 44.9199 72.6607 28.8887 72.6607ZM27.6967 8.37496C24.4545 8.47651 21.3844 9.85803 19.1582 12.2173C16.9319 14.5766 15.7307 17.7216 15.8172 20.9643V28.7723C15.8032 30.9716 16.3032 33.1439 17.2775 35.1157C18.2518 37.0875 19.6734 38.8044 21.4289 40.1294C22.2221 40.7282 22.8275 41.5414 23.1737 42.473C23.5199 43.4046 23.5924 44.4158 23.3826 45.3873C23.1728 46.3588 22.6895 47.25 21.9898 47.9558C21.29 48.6615 20.403 49.1524 19.4333 49.3705C11.5717 50.9643 6.12081 54.4732 6.12081 57.9285C6.12081 62.3884 15.8574 67.3705 28.8887 67.3705C41.9199 67.3705 51.6565 62.3884 51.6565 57.9285C51.6565 54.5134 46.1922 51.0044 38.3574 49.4107C37.3878 49.1926 36.5007 48.7017 35.801 47.9959C35.1012 47.2902 34.6179 46.399 34.4082 45.4275C34.1984 44.456 34.2708 43.4448 34.617 42.5132C34.9632 41.5815 35.5686 40.7684 36.3619 40.1696C38.1088 38.8445 39.523 37.1307 40.4924 35.164C41.4618 33.1973 41.9597 31.0318 41.9467 28.8392V20.991C42.0405 17.7438 40.8425 14.5919 38.6155 12.2268C36.3884 9.86169 33.3143 8.47646 30.0672 8.37496H27.6967Z" fill="black"/>
<path d="M61.9415 55.1697C61.2784 55.1963 60.629 54.9759 60.1192 54.551C59.6094 54.1262 59.2755 53.5272 59.1821 52.8702C59.0887 52.2132 59.2425 51.5449 59.6138 50.9948C59.985 50.4448 60.5472 50.0521 61.1915 49.8929C65.7183 48.5536 68.879 46.2634 68.879 44.2679C68.879 42.2724 65.3701 39.4063 58.8477 38.067C57.9863 37.865 57.1997 37.4233 56.5788 36.793C55.9578 36.1627 55.528 35.3696 55.3389 34.5053C55.1497 33.6409 55.2091 32.7408 55.5101 31.9087C55.8111 31.0767 56.3414 30.3469 57.0397 29.8036C58.3528 28.8078 59.4155 27.5192 60.1432 26.0406C60.871 24.5619 61.2436 22.9338 61.2317 21.2858V15.0715C61.2931 12.661 60.4004 10.3238 58.7476 8.56812C57.0947 6.81247 54.8156 5.78043 52.4058 5.69649H52.2317C50.7816 5.61646 49.3382 5.94597 48.0665 6.64738C47.7714 6.85996 47.4361 7.01022 47.081 7.089C46.726 7.16778 46.3586 7.17343 46.0013 7.1056C45.644 7.03778 45.3042 6.8979 45.0027 6.69449C44.7013 6.49109 44.4443 6.22841 44.2477 5.92248C44.051 5.61655 43.9187 5.27378 43.8588 4.91505C43.7989 4.55633 43.8127 4.18916 43.8994 3.83594C43.986 3.48272 44.1437 3.15084 44.3628 2.86054C44.5818 2.57023 44.8577 2.32758 45.1736 2.14738C47.3874 0.832084 49.9415 0.202876 52.5129 0.339344C56.3247 0.451525 59.939 2.06035 62.5734 4.81756C65.2078 7.57478 66.6503 11.2586 66.5888 15.0715V21.2456C66.5939 23.4855 66.1306 25.7018 65.2288 27.7521C64.327 29.8025 63.0066 31.6418 61.3522 33.1518C69.3879 35.1206 74.2361 39.3126 74.2361 44.2679C74.2361 48.9018 69.9236 52.9197 62.7049 54.9822C62.4619 55.0845 62.2042 55.1478 61.9415 55.1697Z" fill="black"/>
</g>
<defs>
<clipPath id="clip0_545_8">
<rect width="75" height="73" fill="white"/>
</clipPath>
</defs>
</svg>
