<svg width="371" height="269" viewBox="0 0 371 269" fill="none" xmlns="http://www.w3.org/2000/svg">
<g clip-path="url(#clip0_503_36)">
<path d="M236.42 201.6V266.425H74.0082C55.5036 266.425 40.4481 251.884 40.4481 234.012C40.4481 216.14 55.5036 201.6 74.0082 201.6H236.42Z" fill="#F2F2F2"/>
<path d="M240.409 265.926C240.409 266.587 240.146 267.221 239.678 267.689C239.211 268.156 238.577 268.419 237.916 268.419H71.1154C62.0561 268.419 53.3679 264.821 46.9621 258.415C40.5562 252.009 36.9575 243.321 36.9575 234.261C36.9575 225.202 40.5562 216.514 46.9621 210.108C53.3679 203.702 62.0561 200.104 71.1154 200.104H237.916C238.577 200.104 239.211 200.366 239.679 200.834C240.146 201.301 240.409 201.936 240.409 202.597C240.409 203.258 240.146 203.892 239.679 204.36C239.211 204.827 238.577 205.09 237.916 205.09H71.1154C63.3787 205.09 55.9588 208.163 50.4881 213.634C45.0174 219.105 41.944 226.525 41.944 234.261C41.944 241.998 45.0174 249.418 50.4881 254.889C55.9588 260.359 63.3787 263.433 71.1154 263.433H237.916C238.577 263.433 239.211 263.696 239.678 264.163C240.146 264.631 240.409 265.265 240.409 265.926Z" fill="#0085FF"/>
<path d="M236.42 216.559H61.8903C61.758 216.559 61.6312 216.507 61.5377 216.413C61.4441 216.32 61.3916 216.193 61.3916 216.061C61.3916 215.928 61.4441 215.802 61.5377 215.708C61.6312 215.615 61.758 215.562 61.8903 215.562H236.42C236.552 215.562 236.679 215.615 236.772 215.708C236.866 215.802 236.919 215.928 236.919 216.061C236.919 216.193 236.866 216.32 236.772 216.413C236.679 216.507 236.552 216.559 236.42 216.559Z" fill="#CCCCCC"/>
<path d="M236.42 228.527H61.8903C61.758 228.527 61.6312 228.475 61.5377 228.381C61.4441 228.288 61.3916 228.161 61.3916 228.028C61.3916 227.896 61.4441 227.769 61.5377 227.676C61.6312 227.582 61.758 227.53 61.8903 227.53H236.42C236.552 227.53 236.679 227.582 236.772 227.676C236.866 227.769 236.919 227.896 236.919 228.028C236.919 228.161 236.866 228.288 236.772 228.381C236.679 228.475 236.552 228.527 236.42 228.527Z" fill="#CCCCCC"/>
<path d="M236.42 240.495H61.8903C61.758 240.495 61.6312 240.442 61.5377 240.349C61.4441 240.255 61.3916 240.128 61.3916 239.996C61.3916 239.864 61.4441 239.737 61.5377 239.644C61.6312 239.55 61.758 239.498 61.8903 239.498H236.42C236.552 239.498 236.679 239.55 236.772 239.644C236.866 239.737 236.919 239.864 236.919 239.996C236.919 240.128 236.866 240.255 236.772 240.349C236.679 240.442 236.552 240.495 236.42 240.495Z" fill="#CCCCCC"/>
<path d="M236.42 252.463H61.8903C61.758 252.463 61.6312 252.41 61.5377 252.317C61.4441 252.223 61.3916 252.096 61.3916 251.964C61.3916 251.832 61.4441 251.705 61.5377 251.611C61.6312 251.518 61.758 251.465 61.8903 251.465H236.42C236.552 251.465 236.679 251.518 236.772 251.611C236.866 251.705 236.919 251.832 236.919 251.964C236.919 252.096 236.866 252.223 236.772 252.317C236.679 252.41 236.552 252.463 236.42 252.463Z" fill="#CCCCCC"/>
<path d="M361.94 213.802L321.267 264.28L194.801 162.38C180.392 150.77 177.791 130.001 189.004 116.085C200.218 102.168 221.064 100.292 235.473 111.902L361.94 213.802Z" fill="#F2F2F2"/>
<path d="M324.687 266.395C324.272 266.91 323.669 267.238 323.012 267.309C322.354 267.38 321.696 267.187 321.181 266.772L191.297 162.118C184.242 156.434 179.735 148.181 178.766 139.173C177.797 130.166 180.446 121.143 186.13 114.088C191.814 107.034 200.067 102.527 209.075 101.558C218.082 100.589 227.105 103.238 234.16 108.922L364.044 213.576C364.299 213.781 364.511 214.035 364.668 214.322C364.825 214.61 364.924 214.925 364.959 215.251C364.995 215.577 364.965 215.906 364.873 216.22C364.781 216.535 364.627 216.828 364.422 217.083C364.216 217.338 363.963 217.55 363.675 217.707C363.388 217.864 363.072 217.962 362.746 217.997C362.421 218.032 362.091 218.003 361.777 217.91C361.463 217.818 361.17 217.664 360.915 217.459L231.031 112.805C228.048 110.399 224.621 108.605 220.944 107.525C217.268 106.444 213.415 106.099 209.605 106.508C205.795 106.917 202.103 108.073 198.74 109.909C195.377 111.745 192.408 114.226 190.004 117.21C187.6 120.194 185.807 123.622 184.728 127.299C183.649 130.975 183.305 134.829 183.716 138.638C184.126 142.448 185.283 146.14 187.121 149.502C188.959 152.865 191.441 155.832 194.425 158.235L324.31 262.889C324.824 263.304 325.153 263.907 325.224 264.564C325.295 265.221 325.101 265.88 324.687 266.395Z" fill="#CCCCCC"/>
<path d="M352.554 225.451L216.651 115.948C216.6 115.906 216.558 115.856 216.527 115.798C216.495 115.741 216.475 115.678 216.468 115.613C216.461 115.547 216.467 115.482 216.486 115.419C216.504 115.356 216.535 115.297 216.576 115.246C216.617 115.195 216.668 115.153 216.725 115.122C216.783 115.09 216.846 115.07 216.911 115.063C216.976 115.056 217.042 115.062 217.105 115.081C217.168 115.099 217.226 115.13 217.277 115.171L353.18 224.674C353.231 224.716 353.273 224.766 353.305 224.824C353.336 224.881 353.356 224.944 353.363 225.009C353.37 225.075 353.364 225.141 353.346 225.203C353.328 225.266 353.297 225.325 353.256 225.376C353.215 225.427 353.164 225.469 353.106 225.501C353.049 225.532 352.986 225.552 352.92 225.559C352.855 225.566 352.789 225.56 352.727 225.541C352.664 225.523 352.605 225.492 352.554 225.451Z" fill="#CCCCCC"/>
<path d="M345.045 234.77L209.143 125.266C209.04 125.183 208.974 125.063 208.96 124.932C208.946 124.8 208.985 124.669 209.068 124.566C209.151 124.463 209.271 124.397 209.402 124.383C209.534 124.369 209.665 124.407 209.768 124.49L345.671 233.993C345.722 234.034 345.765 234.085 345.796 234.143C345.828 234.2 345.847 234.263 345.855 234.328C345.862 234.394 345.856 234.46 345.837 234.522C345.819 234.585 345.788 234.644 345.747 234.695C345.706 234.746 345.655 234.788 345.598 234.82C345.54 234.851 345.477 234.871 345.412 234.878C345.347 234.885 345.281 234.879 345.218 234.86C345.155 234.842 345.096 234.811 345.045 234.77Z" fill="#CCCCCC"/>
<path d="M337.537 244.089L201.634 134.586C201.531 134.503 201.465 134.382 201.451 134.251C201.437 134.119 201.475 133.988 201.558 133.885C201.641 133.782 201.762 133.716 201.893 133.702C202.025 133.687 202.157 133.726 202.26 133.809L338.162 243.313C338.213 243.354 338.256 243.404 338.287 243.462C338.318 243.519 338.338 243.582 338.345 243.648C338.352 243.713 338.346 243.779 338.328 243.841C338.309 243.904 338.279 243.963 338.238 244.014C338.197 244.065 338.146 244.107 338.088 244.139C338.031 244.17 337.968 244.19 337.903 244.197C337.838 244.204 337.772 244.198 337.709 244.179C337.646 244.161 337.588 244.13 337.537 244.089Z" fill="#CCCCCC"/>
<path d="M330.028 253.408L194.125 143.905C194.074 143.863 194.032 143.813 194 143.755C193.969 143.698 193.949 143.635 193.942 143.57C193.935 143.504 193.941 143.439 193.959 143.376C193.978 143.313 194.009 143.254 194.05 143.203C194.091 143.152 194.141 143.11 194.199 143.079C194.256 143.047 194.319 143.027 194.385 143.02C194.45 143.013 194.515 143.019 194.578 143.038C194.641 143.056 194.7 143.087 194.751 143.128L330.653 252.631C330.705 252.672 330.747 252.723 330.778 252.781C330.81 252.838 330.83 252.901 330.837 252.966C330.844 253.032 330.838 253.098 330.82 253.16C330.801 253.223 330.77 253.282 330.729 253.333C330.688 253.384 330.637 253.426 330.58 253.458C330.522 253.489 330.459 253.509 330.394 253.516C330.329 253.523 330.263 253.517 330.2 253.498C330.137 253.48 330.079 253.449 330.028 253.408Z" fill="#CCCCCC"/>
<path d="M370.501 268.918H0.498656C0.366404 268.918 0.239569 268.866 0.146053 268.772C0.0525364 268.679 0 268.552 0 268.42C0 268.287 0.0525364 268.16 0.146053 268.067C0.239569 267.973 0.366404 267.921 0.498656 267.921H370.501C370.634 267.921 370.76 267.973 370.854 268.067C370.947 268.16 371 268.287 371 268.42C371 268.552 370.947 268.679 370.854 268.772C370.76 268.866 370.634 268.918 370.501 268.918Z" fill="#CCCCCC"/>
<path d="M168.586 194.786L162.885 194.786L160.174 172.797L168.588 172.798L168.586 194.786Z" fill="#FFB8B8"/>
<path d="M158.813 193.157H169.807V200.079H151.891C151.891 199.17 152.07 198.27 152.418 197.43C152.766 196.59 153.276 195.827 153.918 195.184C154.561 194.541 155.324 194.032 156.164 193.684C157.004 193.336 157.904 193.157 158.813 193.157Z" fill="#2F2E41"/>
<path d="M110.346 194.786L104.645 194.786L101.934 172.797L110.348 172.798L110.346 194.786Z" fill="#FFB8B8"/>
<path d="M100.573 193.157H111.567V200.079H93.6505C93.6505 199.17 93.8296 198.27 94.1774 197.43C94.5253 196.59 95.0352 195.827 95.678 195.184C96.3208 194.541 97.0839 194.032 97.9238 193.684C98.7636 193.336 99.6638 193.157 100.573 193.157Z" fill="#2F2E41"/>
<path d="M129.387 31.6812V29.1879C129.387 24.9227 131.081 20.8323 134.097 17.8164C137.113 14.8005 141.203 13.1062 145.468 13.1062C149.733 13.1062 153.824 14.8005 156.84 17.8164C159.856 20.8323 161.55 24.9227 161.55 29.1879V31.6812C161.55 34.756 160.329 37.7049 158.154 39.8792C155.98 42.0534 153.031 43.2749 149.956 43.2749H140.98C139.458 43.2749 137.95 42.975 136.544 42.3924C135.137 41.8098 133.859 40.9558 132.782 39.8792C131.706 38.8026 130.852 37.5245 130.269 36.1179C129.687 34.7113 129.387 33.2037 129.387 31.6812Z" fill="#2F2E41"/>
<path d="M145.468 44.1327C152.232 44.1327 157.716 38.6493 157.716 31.8852C157.716 25.1211 152.232 19.6377 145.468 19.6377C138.704 19.6377 133.221 25.1211 133.221 31.8852C133.221 38.6493 138.704 44.1327 145.468 44.1327Z" fill="#FFB8B8"/>
<path d="M78.8498 73.9783C79.3468 73.509 79.9407 73.1544 80.5896 72.9394C81.2385 72.7244 81.9266 72.6543 82.6055 72.7341C83.2844 72.8138 83.9376 73.0415 84.519 73.401C85.1004 73.7604 85.596 74.243 85.9707 74.8148L96.4697 72.8288L99.2327 78.9146L84.3667 81.511C83.3645 82.0769 82.1896 82.2554 81.0645 82.0129C79.9395 81.7704 78.9425 81.1236 78.2624 80.1951C77.5824 79.2666 77.2666 78.1209 77.3749 76.9751C77.4831 75.8293 78.0079 74.763 78.8498 73.9783Z" fill="#FFB8B8"/>
<path d="M136.057 52.0539L118.841 63.3955L89.7899 72.6721C89.4048 72.7959 89.0745 73.0493 88.8552 73.3891C88.6359 73.729 88.5412 74.1344 88.5871 74.5363L89.2209 79.9949C89.249 80.2365 89.3273 80.4695 89.4507 80.6791C89.5742 80.8886 89.74 81.0701 89.9377 81.2118C90.1354 81.3535 90.3605 81.4524 90.5986 81.502C90.8367 81.5516 91.0825 81.551 91.3203 81.5001L118.662 75.6395C119.985 75.3575 121.236 74.8066 122.337 74.0211L141.679 60.2597C142.38 59.7581 142.94 59.0836 143.303 58.3018C143.667 57.52 143.821 56.6574 143.753 55.798C143.682 54.9374 143.388 54.1101 142.9 53.3975C142.413 52.6849 141.748 52.1115 140.972 51.7337C140.195 51.356 139.334 51.1868 138.472 51.2429C137.61 51.2991 136.778 51.5786 136.057 52.0539Z" fill="#CCCCCC"/>
<path d="M162.987 188.546C162.55 188.546 162.122 188.419 161.755 188.18C161.389 187.94 161.1 187.6 160.924 187.199L134.789 122.623C134.728 122.483 134.626 122.365 134.496 122.285C134.366 122.204 134.214 122.166 134.062 122.175C133.909 122.183 133.763 122.238 133.643 122.333C133.522 122.427 133.434 122.556 133.389 122.702L112.067 185.569C111.977 185.862 111.828 186.133 111.63 186.366C111.431 186.598 111.187 186.788 110.912 186.923C110.637 187.058 110.338 187.136 110.032 187.151C109.727 187.166 109.421 187.118 109.134 187.011L101.984 184.329C101.596 184.185 101.256 183.936 101.001 183.61C100.746 183.284 100.586 182.894 100.54 182.482C97.3233 154.461 125.373 83.7334 125.657 83.0224L125.735 82.8254L151.305 88.4816L151.358 88.5395C161.559 99.6685 169.945 169.861 171.522 183.82C171.581 184.324 171.466 184.833 171.197 185.263C170.927 185.693 170.52 186.019 170.04 186.187L163.729 188.419C163.491 188.503 163.24 188.546 162.987 188.546Z" fill="#2F2E41"/>
<path d="M140.956 90.7583C134.761 90.7583 127.854 89.5232 125.728 84.4251L125.68 84.3079L125.746 84.1993C127.424 81.446 129.642 76.7492 128.45 75.8676C126.101 74.1313 124.962 71.2749 125.063 67.3777C125.283 58.9176 131.047 51.4064 139.407 48.6869C141.741 47.9401 144.116 47.3287 146.52 46.8557C148.272 46.502 150.081 46.5409 151.817 46.9696C153.553 47.3982 155.172 48.206 156.559 49.3348C157.963 50.4711 159.098 51.9042 159.882 53.5312C160.666 55.1582 161.08 56.9387 161.095 58.7448C161.182 67.7858 159.79 80.3781 152.661 89.0233C152.327 89.4244 151.862 89.6948 151.348 89.7868C147.918 90.4072 144.442 90.7322 140.956 90.7583Z" fill="#CCCCCC"/>
<path d="M138.652 90.4197C138.989 89.2103 139.79 88.1829 140.88 87.5606C141.971 86.9384 143.263 86.7716 144.475 87.0966C144.723 87.1658 144.964 87.2552 145.197 87.364L153.169 80.1091L158.713 83.8442L147.313 93.9325C146.798 94.8606 145.988 95.5899 145.011 96.0044C144.034 96.4188 142.946 96.4946 141.921 96.2196C141.324 96.0562 140.765 95.776 140.277 95.3953C139.789 95.0146 139.381 94.5408 139.077 94.0015C138.773 93.4622 138.579 92.868 138.506 92.2532C138.433 91.6384 138.482 91.0152 138.652 90.4197Z" fill="#FFB8B8"/>
<path d="M151.906 90.5118C151.389 90.5121 150.888 90.3332 150.487 90.0056L147.344 87.4366C147.082 87.2224 146.871 86.9517 146.729 86.6448C146.586 86.3379 146.515 86.0027 146.52 85.6643C146.525 85.326 146.607 84.9931 146.759 84.6908C146.911 84.3884 147.13 84.1244 147.398 83.9185L160.583 73.8058C160.74 73.6854 160.842 73.5081 160.869 73.3126C160.895 73.117 160.843 72.9189 160.725 72.7613L152.587 62.0022C151.641 60.7563 151.167 59.2161 151.248 57.6542C151.329 56.0923 151.96 54.6094 153.029 53.4681C154.155 52.2518 155.698 51.5033 157.35 51.3711C159.002 51.239 160.644 51.7328 161.949 52.7546L162 52.8089L170.499 64.9773C171.417 65.6978 172.157 66.621 172.661 67.6748C173.164 68.7285 173.416 69.8844 173.399 71.052C173.382 72.2196 173.095 73.3674 172.56 74.4057C172.026 75.444 171.259 76.3448 170.319 77.0376L153.242 90.0718C152.855 90.3575 152.387 90.5118 151.906 90.5118Z" fill="#CCCCCC"/>
<path d="M134.62 28.4399V22.3632L145.468 17.626L155.813 22.3632V28.4399C155.813 28.7044 155.708 28.9581 155.521 29.1451C155.333 29.3321 155.08 29.4372 154.815 29.4372H135.617C135.353 29.4372 135.099 29.3321 134.912 29.1451C134.725 28.9581 134.62 28.7044 134.62 28.4399Z" fill="#2F2E41"/>
<path d="M144.97 13.9123C143.375 8.80681 146.725 2.95567 151.678 0.934786C156.63 -1.0861 162.555 0.32656 166.734 3.66537C170.913 7.00418 173.505 12.0051 174.879 17.1745C176.253 22.344 176.514 27.7345 176.767 33.0774C182.852 34.195 186.991 41.412 184.883 47.2284C182.776 53.0447 174.974 55.9343 169.586 52.8943C164.198 49.8542 162.637 41.6822 166.526 36.8706C168.366 34.5939 169.394 31.7683 169.447 28.8415C169.499 25.9147 168.574 23.0539 166.818 20.7122C165.061 18.3705 162.573 16.6818 159.749 15.9135C156.924 15.1452 153.924 15.3413 151.223 16.4707C148.224 17.7248 144.462 14.4664 144.97 13.9123Z" fill="#2F2E41"/>
<path d="M76.6006 50.4055C69.3156 50.3577 62.1216 48.7821 55.4835 45.7805C55.0883 45.6044 54.7529 45.3172 54.5181 44.9538C54.2833 44.5905 54.1593 44.1667 54.1611 43.7341V25.574C54.1618 24.9791 54.3984 24.4087 54.8191 23.988C55.2397 23.5674 55.8101 23.3307 56.405 23.3301H96.7962C97.3911 23.3307 97.9615 23.5674 98.3822 23.9881C98.8028 24.4087 99.0395 24.9791 99.0401 25.574V43.7341C99.0419 44.1667 98.9179 44.5905 98.6831 44.9538C98.4483 45.3172 98.1129 45.6045 97.7178 45.7806C91.0796 48.7821 83.8857 50.3577 76.6006 50.4055Z" fill="#0085FF"/>
<path d="M76.5951 35.6937C76.2956 35.6939 75.9991 35.6343 75.7231 35.5184L43.6934 22.005C43.2804 21.8307 42.929 21.5367 42.6846 21.1609C42.4402 20.7851 42.3139 20.3447 42.3222 19.8965C42.3304 19.4483 42.4727 19.0128 42.7307 18.6462C42.9887 18.2796 43.3506 17.9987 43.7698 17.8397L75.7998 5.68857C76.3157 5.49196 76.8861 5.49318 77.4012 5.69198L109.002 17.8431C109.419 18.0034 109.778 18.2843 110.034 18.6501C110.291 19.0158 110.432 19.4496 110.44 19.8961C110.448 20.3425 110.323 20.7813 110.081 21.1562C109.838 21.5312 109.489 21.8253 109.079 22.0008L77.4776 35.514C77.1986 35.6328 76.8984 35.6939 76.5951 35.6937Z" fill="#0085FF"/>
<path d="M57.901 47.0163C59.5534 47.0163 60.8929 45.6768 60.8929 44.0244C60.8929 42.372 59.5534 41.0325 57.901 41.0325C56.2486 41.0325 54.9091 42.372 54.9091 44.0244C54.9091 45.6768 56.2486 47.0163 57.901 47.0163Z" fill="#3F3D56"/>
<path opacity="0.2" d="M109.188 20.0827L77.5868 33.5958C77.3404 33.7012 77.0753 33.7558 76.8074 33.7564C76.5394 33.7571 76.2741 33.7037 76.0272 33.5996L43.9976 20.0866C43.5954 19.9209 43.2598 19.626 43.0439 19.2483C42.9026 19.4932 42.8151 19.7654 42.7871 20.0467C42.7591 20.328 42.7913 20.6121 42.8815 20.88C42.9717 21.1479 43.1179 21.3936 43.3103 21.6007C43.5027 21.8078 43.737 21.9716 43.9976 22.0812L76.0272 35.5942C76.2741 35.6984 76.5394 35.7517 76.8074 35.7511C77.0753 35.7504 77.3404 35.6958 77.5868 35.5904L109.188 22.0773C109.447 21.9667 109.68 21.8024 109.871 21.5952C110.062 21.388 110.207 21.1426 110.297 20.8752C110.386 20.6079 110.417 20.3246 110.389 20.0442C110.361 19.7637 110.274 19.4925 110.133 19.2483C109.918 19.6229 109.586 19.9163 109.188 20.0827Z" fill="black"/>
<path d="M58.1524 44.0127C58.2847 44.0127 58.4115 43.9602 58.505 43.8667C58.5985 43.7732 58.6511 43.6463 58.6511 43.5141V26.8283L75.0973 20.8369C75.2296 20.8389 75.3572 20.7882 75.4521 20.6961C75.547 20.604 75.6014 20.4779 75.6034 20.3457C75.6054 20.2134 75.5547 20.0858 75.4626 19.9909C75.3705 19.896 75.2444 19.8416 75.1122 19.8396L58.6659 25.831C58.5336 25.828 58.402 25.8518 58.2791 25.9011C58.1563 25.9504 58.0447 26.0242 57.9512 26.1178C57.8566 26.2104 57.7816 26.321 57.7305 26.443C57.6795 26.565 57.6534 26.696 57.6538 26.8283V43.5141C57.6538 43.6463 57.7063 43.7731 57.7998 43.8667C57.8933 43.9602 58.0202 44.0127 58.1524 44.0127Z" fill="#3F3D56"/>
</g>
<defs>
<clipPath id="clip0_503_36">
<rect width="371" height="268.918" fill="white"/>
</clipPath>
</defs>
</svg>
