<svg width="67" height="67" viewBox="0 0 67 67" fill="none" xmlns="http://www.w3.org/2000/svg">
<g clip-path="url(#clip0_544_2)">
<path d="M59.0275 53.4236C63.5786 47.7218 66.0793 40.5991 66.0793 33.3037C66.0793 15.4439 51.4646 0.920288 33.5008 0.920288C15.5367 0.920288 0.920898 15.4439 0.920898 33.3037C0.920898 51.1541 15.5367 65.6824 33.5008 65.6824C38.611 65.6824 43.4991 64.5397 48.038 62.2861C48.9607 62.3174 51.2706 63.2939 52.9608 64.0079C55.4739 65.074 57.8489 66.0797 59.592 66.0797C60.4685 66.0797 61.1992 65.8351 61.7638 65.3593C63.5843 63.8125 62.353 61.1233 60.6471 57.3992C60.0982 56.205 59.2227 54.2899 59.0275 53.4236ZM54.4875 60.452C51.9125 59.361 49.6892 58.4204 47.9988 58.4204C47.4096 58.4204 46.8833 58.5372 46.4321 58.7617C42.4025 60.7886 38.0511 61.8169 33.5009 61.8169C17.6808 61.8169 4.81016 49.0236 4.81016 33.3036C4.81016 17.5765 17.6808 4.78339 33.5009 4.78339C49.3199 4.78339 62.1904 17.5766 62.1904 33.3036C62.1904 39.8784 59.8806 46.2986 55.6929 51.3718C54.3549 52.9949 55.4481 55.3832 57.1071 58.9997C57.491 59.8438 58.0376 61.0333 58.3978 61.9716C57.2798 61.6351 55.7747 60.9974 54.4875 60.452ZM17.9511 27.5769C15.089 27.5769 12.7669 29.8981 12.7669 32.7602C12.7669 35.6202 15.089 37.9458 17.9511 37.9458C20.8134 37.9458 23.1332 35.6203 23.1332 32.7602C23.1332 29.8982 20.8134 27.5769 17.9511 27.5769ZM34.2406 27.5769C31.3795 27.5769 29.0573 29.8981 29.0573 32.7602C29.0573 35.6202 31.3794 37.9458 34.2406 37.9458C37.1027 37.9458 39.4236 35.6203 39.4236 32.7602C39.4236 29.8982 37.1026 27.5769 34.2406 27.5769ZM50.531 27.5769C47.6678 27.5769 45.3477 29.8981 45.3477 32.7602C45.3477 35.6202 47.6678 37.9458 50.531 37.9458C53.3918 37.9458 55.7119 35.6203 55.7119 32.7602C55.7119 29.8982 53.3919 27.5769 50.531 27.5769Z" fill="black"/>
</g>
<defs>
<clipPath id="clip0_544_2">
<rect width="67" height="67" fill="white"/>
</clipPath>
</defs>
</svg>
